<svg xmlns:dc="http://purl.org/dc/elements/1.1/" xmlns:cc="http://creativecommons.org/ns#" xmlns:rdf="http://www.w3.org/1999/02/22-rdf-syntax-ns#" xmlns:svg="http://www.w3.org/2000/svg" xmlns="http://www.w3.org/2000/svg" xmlns:xlink="http://www.w3.org/1999/xlink" xmlns:sodipodi="http://sodipodi.sourceforge.net/DTD/sodipodi-0.dtd" xmlns:inkscape="http://www.inkscape.org/namespaces/inkscape" width="256" height="256" id="svg7490" version="1.1" inkscape:version="0.48.3.1 r9886" viewBox="0 0 1792 1792">
  <g transform="matrix(1 0 0 -1 0 1536)">
   <path fill="#CE1919" d="M1482 486q46 -26 59.5 -77.5t-12.5 -97.5l-64 -110q-26 -46 -77.5 -59.5t-97.5 12.5l-266 153v-307q0 -52 -38 -90t-90 -38h-128q-52 0 -90 38t-38 90v307l-266 -153q-46 -26 -97.5 -12.5t-77.5 59.5l-64 110q-26 46 -12.5 97.5t59.5 77.5l266 154l-266 154
q-46 26 -59.5 77.5t12.5 97.5l64 110q26 46 77.5 59.5t97.5 -12.5l266 -153v307q0 52 38 90t90 38h128q52 0 90 -38t38 -90v-307l266 153q46 26 97.5 12.5t77.5 -59.5l64 -110q26 -46 12.5 -97.5t-59.5 -77.5l-266 -154z" />
  </g>
</svg>