<?xml version="1.0" standalone="no"?>
<!DOCTYPE svg PUBLIC "-//W3C//DTD SVG 1.1//EN" "http://www.w3.org/Graphics/SVG/1.1/DTD/svg11.dtd" >
<svg viewBox="0 -410 2048 2048">
  <g transform="matrix(1 0 0 -1 0 1638)">
   <path fill="currentColor"
d="M256 1088q0 143 55.5 273.5t150 225t225 150t273.5 55.5t273.5 -55.5t225 -150t150 -225t55.5 -273.5t-55.5 -273.5t-150 -225t-225 -150t-273.5 -55.5t-273.5 55.5t-225 150t-150 225t-55.5 273.5zM384 1088q0 -117 45.5 -223.5t123 -184t184 -123t223.5 -45.5
t223.5 45.5t184 123t123 184t45.5 223.5t-45.5 223.5t-123 184t-184 123t-223.5 45.5t-223.5 -45.5t-184 -123t-123 -184t-45.5 -223.5zM896 1062v474h128v-421l298 -298l-90 -91z" />
  </g>

</svg>
