<svg xmlns:dc="http://purl.org/dc/elements/1.1/" xmlns:cc="http://creativecommons.org/ns#" xmlns:rdf="http://www.w3.org/1999/02/22-rdf-syntax-ns#" xmlns:svg="http://www.w3.org/2000/svg" xmlns="http://www.w3.org/2000/svg" xmlns:xlink="http://www.w3.org/1999/xlink" xmlns:sodipodi="http://sodipodi.sourceforge.net/DTD/sodipodi-0.dtd" xmlns:inkscape="http://www.inkscape.org/namespaces/inkscape" width="256" height="256" id="svg7490" version="1.1" inkscape:version="0.48.3.1 r9886" viewBox="0 -0 512 512">
  <g transform="matrix(1 0 0 -1 0 480)">
   <path fill="currentColor" d="M197 301q-8 0 -14 -5.5t-6 -13.5t6 -13.5t14 -5.5h59q8 0 14 5.5t6 13.5t-6 13.5t-14 5.5h-59zM197 185q-8 0 -14 -5.5t-6 -13.5t6 -13.5t14 -5.5h116q8 0 13.5 5.5t5.5 13.5t-5.5 13.5t-13.5 5.5h-116zM512 224q0 106 -75 181t-181 75t-181 -75t-75 -181t75 -181
t181 -75t181 75t75 181zM197 383h65q5 0 12.5 -1t26 -9.5t31.5 -23.5q23 -29 24 -69q0 -6 6 -12q5 -5 10 -5h24q9 -1 14 -6l6 -11v-79q0 -42 -30 -72t-72 -30h-117q-42 0 -71.5 30t-29.5 72v114q0 42 29.5 72t71.5 30z" />
  </g>
</svg>