<svg xmlns:dc="http://purl.org/dc/elements/1.1/" xmlns:cc="http://creativecommons.org/ns#" xmlns:rdf="http://www.w3.org/1999/02/22-rdf-syntax-ns#" xmlns:svg="http://www.w3.org/2000/svg" xmlns="http://www.w3.org/2000/svg" xmlns:xlink="http://www.w3.org/1999/xlink" xmlns:sodipodi="http://sodipodi.sourceforge.net/DTD/sodipodi-0.dtd" xmlns:inkscape="http://www.inkscape.org/namespaces/inkscape" width="256" height="256" id="svg7490" version="1.1" inkscape:version="0.48.3.1 r9886" viewBox="0 -0 512 512">
  <g transform="matrix(1 0 0 -1 0 480)">
   <path fill="currentColor" d="M256 480q-106 0 -181 -75t-75 -181t75 -181t181 -75t181 75t75 181t-75 181t-181 75zM200 116.5q-11 -10.5 -26 -10.5t-26 11v0q-10 10 -10 25t10.5 26t25.5 11t26 -11v0q11 -11 11 -26t-11 -25.5zM266 106v0q0 53 -37.5 91t-90.5 38v52q75 0 128 -53t53 -128h-53z
M360 106q0 92 -65 157t-157 65v53q113 -1 193.5 -81.5t81.5 -193.5h-53z" />
  </g>
</svg>