<svg xmlns:dc="http://purl.org/dc/elements/1.1/" xmlns:cc="http://creativecommons.org/ns#" xmlns:rdf="http://www.w3.org/1999/02/22-rdf-syntax-ns#" xmlns:svg="http://www.w3.org/2000/svg" xmlns="http://www.w3.org/2000/svg" xmlns:xlink="http://www.w3.org/1999/xlink" xmlns:sodipodi="http://sodipodi.sourceforge.net/DTD/sodipodi-0.dtd" xmlns:inkscape="http://www.inkscape.org/namespaces/inkscape" width="256" height="256" id="svg7490" version="1.1" inkscape:version="0.48.3.1 r9886" viewBox="0 -0 512 512">
  <g transform="matrix(1 0 0 -1 0 480)">
   <path fill="currentColor"
d="M507 274h-150q14 -25 14 -55q0 -47 -33.5 -81t-81.5 -34t-81.5 34t-33.5 81q0 30 14 55h-150q-5 -24 -5 -50q0 -106 75 -181t181 -75t181 75t75 181q0 26 -5 50zM176 302q33 33 80 33t80 -33h164q-25 79 -92 128.5t-152 49.5t-152 -49.5t-92 -128.5h164zM339 386
q0 7 5.5 12.5t12.5 5.5h38q7 0 12.5 -5.5t5.5 -12.5v-38q0 -7 -5.5 -12.5t-12.5 -5.5h-38q-7 0 -12.5 5.5t-5.5 12.5v38zM256 307q-36 0 -62 -25.5t-26 -62t26 -62t62 -25.5t62 25.5t26 62t-26 62t-62 25.5z" />
  </g>
</svg>