<svg xmlns:dc="http://purl.org/dc/elements/1.1/" xmlns:cc="http://creativecommons.org/ns#" xmlns:rdf="http://www.w3.org/1999/02/22-rdf-syntax-ns#" xmlns:svg="http://www.w3.org/2000/svg" xmlns="http://www.w3.org/2000/svg" xmlns:xlink="http://www.w3.org/1999/xlink" xmlns:sodipodi="http://sodipodi.sourceforge.net/DTD/sodipodi-0.dtd" xmlns:inkscape="http://www.inkscape.org/namespaces/inkscape" width="256" height="256" id="svg7490" version="1.1" inkscape:version="0.48.3.1 r9886" viewBox="0 0 512 512">
  <g transform="matrix(1 0 0 -1 0 480)">
   <path fill="currentColor" d="M271 221q-5 3 -13 6q-4 2 -10 2q-20 0 -24 -24v-9q0 -1 2 -8q5 -14 23 -14q10 0 22 7q6 4 16 13l6 6q0 5 -22 21zM378 229q-17 0 -43 -29q23 -26 44 -26q12 0 18.5 7.5t6.5 19.5t-7 20t-19 8zM256 480q-106 0 -181 -75t-75 -181t75 -181t181 -75t181 75t75 181t-75 181
t-181 75zM378 139q-32 0 -64 38q-19 -21 -33 -29.5t-31 -8.5q-38 0 -54 35q-18 -36 -57.5 -36t-56.5 28q-6 12 -6 18v8h34q2 -25 27 -25q12 0 20 7.5t9 20.5v8q-3 27 -29 27q-16 0 -25 -14h-31v3l17 91h94v-29h-70l-6 -37q13 12 33 12q32 0 46 -29q15 36 53 36q35 0 66 -40
q18 22 32.5 31t32.5 9q26 0 41.5 -17.5t15.5 -43.5t-15.5 -44.5t-42.5 -18.5z" />
  </g>
</svg>