<svg xmlns:dc="http://purl.org/dc/elements/1.1/" xmlns:cc="http://creativecommons.org/ns#" xmlns:rdf="http://www.w3.org/1999/02/22-rdf-syntax-ns#" xmlns:svg="http://www.w3.org/2000/svg" xmlns="http://www.w3.org/2000/svg" xmlns:xlink="http://www.w3.org/1999/xlink" xmlns:sodipodi="http://sodipodi.sourceforge.net/DTD/sodipodi-0.dtd" xmlns:inkscape="http://www.inkscape.org/namespaces/inkscape" width="256" height="256" id="svg7490" version="1.1" inkscape:version="0.48.3.1 r9886" viewBox="0 0 512 512">
  <g transform="matrix(1 0 0 -1 0 480)">
   <path fill="currentColor" d="M256 480q-106 0 -181 -75t-75 -181t75 -181t181 -75t181 75t75 181t-75 181t-181 75zM393 338l25 -25q5 -5 0 -11l-157 -157q-5 -5 -11 0l-79 80q-5 5 0 10l23 24q6 5 11 0l45 -44q6 -6 11 0l122 123q5 5 10 0zM430 209l-159 -159q-6 -6 -15 -6t-15 6l-159 159
q-6 6 -6 15t6 15l159 159q6 6 15 6t15 -6l68 -68l-78 -77q-5 -5 -11 0l-45 46q-5 5 -11 0l-63 -64q-5 -5 0 -10l119 -119q6 -5 11 0l150 152l19 -19q6 -6 6 -15t-6 -15z" />
  </g>
</svg>