<svg xmlns:dc="http://purl.org/dc/elements/1.1/" xmlns:cc="http://creativecommons.org/ns#" xmlns:rdf="http://www.w3.org/1999/02/22-rdf-syntax-ns#" xmlns:svg="http://www.w3.org/2000/svg" xmlns="http://www.w3.org/2000/svg" xmlns:xlink="http://www.w3.org/1999/xlink" xmlns:sodipodi="http://sodipodi.sourceforge.net/DTD/sodipodi-0.dtd" xmlns:inkscape="http://www.inkscape.org/namespaces/inkscape" width="256" height="256" id="svg7490" version="1.1" inkscape:version="0.48.3.1 r9886" viewBox="0 0 512 512">
  <g transform="matrix(1 0 0 -1 0 480)">
   <path fill="currentColor" d="M144 246q-5 3 -10 3q-9 0 -15.5 -6.5t-6.5 -15.5q0 -8 5 -15q8 19 27 34zM382 197q-6 24 -32 42v1l-4 2q-37 24 -90.5 24t-90.5 -24q-2 -1 -3 -2h-1q-26 -18 -32 -42q-1 -6 -1 -12q0 -33 37 -57t90.5 -24t90.5 24t37 57q0 5 -1 11zM184 203q0 10 7 17t17 7t17 -7t7 -17
t-7 -17t-17 -7t-17 7t-7 17zM308 141q-16 -17 -52 -17t-52 17q-3 2 -3 5.5t2.5 5.5t5.5 2t6 -2q12 -12 41 -12t41 12q3 2 6 2t5 -2q6 -6 0 -11zM304 179q-10 0 -17 7t-7 17t7 17t17 7t17 -7t7 -17t-7 -17t-17 -7zM363.5 312q6.5 0 11 4.5t4.5 11t-4.5 11t-11 4.5t-11 -4.5
t-4.5 -11t4.5 -11t11 -4.5zM378 249q-5 0 -10 -3q18 -15 26 -35q6 7 6 16t-6.5 15.5t-15.5 6.5zM256 480q-106 0 -181 -75t-75 -181t75 -181t181 -75t181 75t75 181t-75 181t-181 75zM398 195q1 -5 1 -9q0 -41 -43 -70q-42 -27 -100.5 -27t-100.5 27q-43 29 -43 70v9
q-16 12 -16 32q0 16 11 27t27 11q13 0 23 -9q40 25 94 26l20 67q2 5 8 5h2l54 -13q9 18 28 18q13 0 22.5 -9.5t9.5 -22.5t-9.5 -22t-22.5 -9q-12 0 -21 8.5t-10 20.5l-47 12l-18 -55q50 -3 87 -26q11 9 24 9q16 0 27 -11t11 -27q0 -21 -18 -32z" />
  </g>
</svg>