<svg xmlns:dc="http://purl.org/dc/elements/1.1/" xmlns:cc="http://creativecommons.org/ns#" xmlns:rdf="http://www.w3.org/1999/02/22-rdf-syntax-ns#" xmlns:svg="http://www.w3.org/2000/svg" xmlns="http://www.w3.org/2000/svg" xmlns:xlink="http://www.w3.org/1999/xlink" xmlns:sodipodi="http://sodipodi.sourceforge.net/DTD/sodipodi-0.dtd" xmlns:inkscape="http://www.inkscape.org/namespaces/inkscape" width="256" height="256" id="svg7490" version="1.1" inkscape:version="0.48.3.1 r9886" viewBox="0 0 512 512">
  <g transform="matrix(1 0 0 -1 0 480)">
   <path fill="currentColor" d="M257 479q-106 0 -181 -75t-75 -181t75 -181t181 -75t181 75t75 181t-75 181t-181 75zM284 143q-15 0 -27.5 6.5t-17.5 16.5q-11 -43 -13 -51q-7 -26 -33 -60q-1 -1 -2.5 -1t-2.5 2q-6 43 1 70l24 100q-6 12 -6 29q0 20 10 34t25 14q12 0 18.5 -8t6.5 -20q0 -7 -3 -18
t-7 -25t-6 -22q-4 -15 5 -25.5t24 -10.5q25 0 41.5 28.5t16.5 69.5q0 31 -20.5 51t-56.5 20q-40 0 -65 -26t-25 -62q0 -22 12 -36q4 -5 3 -11q-1 -1 -2.5 -7t-1.5 -7q-2 -8 -9 -5q-38 15 -38 70q0 44 35 79.5t96 35.5q51 0 84 -31.5t33 -73.5q0 -55 -27.5 -90.5t-71.5 -35.5
z" />
  </g>
</svg>