<svg xmlns:dc="http://purl.org/dc/elements/1.1/" xmlns:cc="http://creativecommons.org/ns#" xmlns:rdf="http://www.w3.org/1999/02/22-rdf-syntax-ns#" xmlns:svg="http://www.w3.org/2000/svg" xmlns="http://www.w3.org/2000/svg" xmlns:xlink="http://www.w3.org/1999/xlink" xmlns:sodipodi="http://sodipodi.sourceforge.net/DTD/sodipodi-0.dtd" xmlns:inkscape="http://www.inkscape.org/namespaces/inkscape" width="256" height="256" id="svg7490" version="1.1" inkscape:version="0.48.3.1 r9886" viewBox="0 -0 512 512">
  <g transform="matrix(1 0 0 -1 0 480)">
   <path fill="currentColor"
d="M256 480q-106 0 -181 -75t-75 -181t75 -181t181 -75t181 75t75 181t-75 181t-181 75zM401 281q-2 -42 -59 -116q-59 -76 -100 -76q-26 0 -43 46q-4 14 -24 86q-13 47 -28 47q-3 0 -22 -14l-14 18q22 20 42 38q29 24 43 26q34 3 42 -47q8 -53 12 -66q9 -44 21 -44
q9 0 27.5 28.5t19.5 43.5q3 25 -19 25q-11 0 -22 -5q21 70 82 68q44 -1 42 -58z" />
  </g>
</svg>