<svg xmlns:dc="http://purl.org/dc/elements/1.1/" xmlns:cc="http://creativecommons.org/ns#" xmlns:rdf="http://www.w3.org/1999/02/22-rdf-syntax-ns#" xmlns:svg="http://www.w3.org/2000/svg" xmlns="http://www.w3.org/2000/svg" xmlns:xlink="http://www.w3.org/1999/xlink" xmlns:sodipodi="http://sodipodi.sourceforge.net/DTD/sodipodi-0.dtd" xmlns:inkscape="http://www.inkscape.org/namespaces/inkscape" width="256" height="256" id="svg7490" version="1.1" inkscape:version="0.48.3.1 r9886" viewBox="0 -0 512 512">
  <g transform="matrix(1 0 0 -1 0 480)">
   <path fill="currentColor" d="M271 224q-6 13 -12 23q-52 -15 -115 -19h-25v-13v-3v-3q5 -43 35 -77q19 33 53 59t64 33zM280 201q-34 -11 -60 -30q-28 -21 -44 -47q0 -1 -1 -3t-2 -3.5l-1 -1.5q0 -2 12 -9t16 -8q7 -3 18 -7q10 -3 28 -5h10q18 0 41 6q12 4 12 6q0 6 -7.5 33.5t-9.5 34.5q-8 23 -12 34
zM248 268q-21 39 -50 80l-6 -3l-6 -3q-26 -15 -43 -40.5t-21 -49.5h17q20 0 56.5 6t52.5 10zM347 326q-40 35 -91 35q-18 0 -32 -4q30 -41 51 -80q47 19 72 49zM324 210q-7 -1 -18 -2q18 -50 26 -98q48 33 59 91v1q-20 6 -46 8h-21zM288 257q-2 0 -2 -1l11 -27l18 2h29
q2 0 49 -6v9l-0.5 2t-1 4.5t-0.5 4.5q-6 37 -29 65q-27 -32 -74 -53zM256 480q-106 0 -181 -75t-75 -181t75 -181t181 -75t181 75t75 181t-75 181t-181 75zM256 64q-50 0 -93.5 29t-60.5 86q-6 23 -6 34v22q7 70 54 109.5t106 39.5q66 0 113 -47t47 -113q0 -67 -47 -113.5
t-113 -46.5z" />
  </g>
</svg>