<svg xmlns:dc="http://purl.org/dc/elements/1.1/" xmlns:cc="http://creativecommons.org/ns#" xmlns:rdf="http://www.w3.org/1999/02/22-rdf-syntax-ns#" xmlns:svg="http://www.w3.org/2000/svg" xmlns="http://www.w3.org/2000/svg" xmlns:xlink="http://www.w3.org/1999/xlink" xmlns:sodipodi="http://sodipodi.sourceforge.net/DTD/sodipodi-0.dtd" xmlns:inkscape="http://www.inkscape.org/namespaces/inkscape" width="256" height="256" id="svg7490" version="1.1" inkscape:version="0.48.3.1 r9886" viewBox="0 -0 512 512">
  <g transform="matrix(1 0 0 -1 0 480)">
   <path fill="currentColor" d="M339 228q-20 0 -71 -3.5t-108 -5.5q-9 0 -11.5 -28.5t16.5 -57t61 -28.5q51 0 97 58q34 42 26 60q-3 5 -10 5zM256 480q-106 0 -181 -75t-75 -181t75 -181t181 -75t181 75t75 181t-75 181t-181 75zM297 346q1 11 9.5 19t22.5 9q17 1 27.5 -7.5t10.5 -20.5
q-1 -11 -10.5 -19t-28.5 -9q-16 -1 -24.5 7.5t-6.5 20.5zM161 342q1 11 10 19.5t22 8.5q16 0 25.5 -7t10.5 -17q2 -12 -8.5 -21.5t-30.5 -9.5q-16 -1 -23.5 7.5t-5.5 19.5zM224 74q-62 0 -88 66q-20 51 -5 90q8 19 24 19q117 3 190 10q44 5 42 -32q-3 -43 -55 -96
q-55 -57 -108 -57z" />
  </g>
</svg>