<svg xmlns:dc="http://purl.org/dc/elements/1.1/" xmlns:cc="http://creativecommons.org/ns#" xmlns:rdf="http://www.w3.org/1999/02/22-rdf-syntax-ns#" xmlns:svg="http://www.w3.org/2000/svg" xmlns="http://www.w3.org/2000/svg" xmlns:xlink="http://www.w3.org/1999/xlink" xmlns:sodipodi="http://sodipodi.sourceforge.net/DTD/sodipodi-0.dtd" xmlns:inkscape="http://www.inkscape.org/namespaces/inkscape" width="256" height="256" id="svg7490" version="1.1" inkscape:version="0.48.3.1 r9886" viewBox="0 0 512 512">
  <g transform="matrix(1 0 0 -1 0 480)">
   <path fill="currentColor" d="M256 480q-106 0 -181 -75t-75 -181t75 -181t181 -75t181 75t75 181t-75 181t-181 75zM390 151q-2 -13 -10 -21q-6 -7 -23 -9q-12 -2 -101 -2t-101 2q-17 2 -24 9t-10 21q-5 23 -5 73t5 73q3 14 10 21t24 9q12 2 101 2t101 -2q17 -2 23 -9q8 -8 10 -21q6 -27 6 -73t-6 -73
zM220 154l89 76l-89 64v-140z" />
  </g>
</svg>